<svg width="14" height="15" viewBox="0 0 14 15" fill="none" xmlns="http://www.w3.org/2000/svg">
<path d="M13.2733 7.22L7.27325 1.22C7.02659 0.973332 6.68659 0.833332 6.33325 0.833332H1.66659C0.933252 0.833332 0.333252 1.43333 0.333252 2.16667V6.83333C0.333252 7.18667 0.473252 7.52667 0.726585 7.77333L0.999919 8.04C1.59992 7.68 2.29325 7.5 2.99992 7.5C5.20659 7.5 6.99992 9.29333 6.99992 11.5C6.99992 12.2067 6.81325 12.8933 6.45325 13.5L6.71992 13.7667C6.96659 14.02 7.31325 14.1667 7.66659 14.1667C8.01992 14.1667 8.35992 14.0267 8.60659 13.7733L13.2733 9.10667C13.5266 8.86 13.6666 8.52 13.6666 8.16667C13.6666 7.81333 13.5266 7.47333 13.2733 7.22ZM2.66659 4.16667C2.11325 4.16667 1.66659 3.72 1.66659 3.16667C1.66659 2.61333 2.11325 2.16667 2.66659 2.16667C3.21992 2.16667 3.66659 2.61333 3.66659 3.16667C3.66659 3.72 3.21992 4.16667 2.66659 4.16667ZM4.75325 9.01333L2.17325 11.6133L1.27325 10.7L0.333252 11.6467L2.16659 13.5L5.68659 9.95333L4.75325 9.01333Z" fill="white"/>
</svg>
