<svg width="24" height="24" viewBox="0 0 24 24" fill="none" xmlns="http://www.w3.org/2000/svg">
<rect width="24" height="24" rx="12" fill="black" fill-opacity="0.05"/>
<path d="M15.6667 5C13.8267 5 12.3333 6.49333 12.3333 8.33333V9.66667H6.33333C5.97971 9.66667 5.64057 9.80714 5.39052 10.0572C5.14048 10.3072 5 10.6464 5 11V17.6667C5 18.0203 5.14048 18.3594 5.39052 18.6095C5.64057 18.8595 5.97971 19 6.33333 19H14.3333C15.0733 19 15.6667 18.4067 15.6667 17.6667V11C15.6667 10.6464 15.5262 10.3072 15.2761 10.0572C15.0261 9.80714 14.687 9.66667 14.3333 9.66667H13.6667V8.33333C13.6667 7.22667 14.56 6.33333 15.6667 6.33333C16.7733 6.33333 17.6667 7.22667 17.6667 8.33333V9.66667H19V8.33333C19 6.49333 17.5067 5 15.6667 5ZM10.3333 13C10.687 13 11.0261 13.1405 11.2761 13.3905C11.5262 13.6406 11.6667 13.9797 11.6667 14.3333C11.6667 15.0733 11.0733 15.6667 10.3333 15.6667C9.97971 15.6667 9.64057 15.5262 9.39052 15.2761C9.14048 15.0261 9 14.687 9 14.3333C9 13.9797 9.14048 13.6406 9.39052 13.3905C9.64057 13.1405 9.97971 13 10.3333 13Z" fill="black" fill-opacity="0.35"/>
</svg>
