<svg xmlns="http://www.w3.org/2000/svg" width="59" height="10" viewBox="0 0 59 10" fill="none">
<path d="M5.816 9.384C4.376 9.384 3.192 8.968 2.264 8.136C1.368 7.272 0.92 6.216 0.92 4.968C0.92 3.688 1.368 2.616 2.264 1.752C3.192 0.888 4.376 0.456 5.816 0.456C7.224 0.456 8.376 0.888 9.272 1.752C10.2 2.616 10.664 3.688 10.664 4.968C10.664 6.216 10.2 7.272 9.272 8.136C8.376 8.968 7.224 9.384 5.816 9.384ZM29.5348 9.384C28.0948 9.384 26.9108 8.968 25.9828 8.136C25.0868 7.272 24.6388 6.216 24.6388 4.968C24.6388 3.688 25.0868 2.616 25.9828 1.752C26.9108 0.888 28.0948 0.456 29.5348 0.456C30.9428 0.456 32.0948 0.888 32.9908 1.752C33.9188 2.616 34.3828 3.688 34.3828 4.968C34.3828 6.216 33.9188 7.272 32.9908 8.136C32.0948 8.968 30.9428 9.384 29.5348 9.384ZM53.2535 9.384C51.8135 9.384 50.6295 8.968 49.7015 8.136C48.8055 7.272 48.3575 6.216 48.3575 4.968C48.3575 3.688 48.8055 2.616 49.7015 1.752C50.6295 0.888 51.8135 0.456 53.2535 0.456C54.6615 0.456 55.8135 0.888 56.7095 1.752C57.6375 2.616 58.1015 3.688 58.1015 4.968C58.1015 6.216 57.6375 7.272 56.7095 8.136C55.8135 8.968 54.6615 9.384 53.2535 9.384Z" fill="black"/>
</svg>